<?xml version="1.0" encoding="UTF-8"?>
<svg version="1.1" xmlns="http://www.w3.org/2000/svg" width="1024" height="1024">
<path d="M0 0 C337.92 0 675.84 0 1024 0 C1024 337.92 1024 675.84 1024 1024 C686.08 1024 348.16 1024 0 1024 C0 686.08 0 348.16 0 0 Z " fill="#FEFEFE" transform="translate(0,0)"/>
<path d="M0 0 C48.51 0 97.02 0 147 0 C147 20.46 147 40.92 147 62 C98.49 62 49.98 62 0 62 C0 41.54 0 21.08 0 0 Z " fill="#000000" transform="translate(442,259)"/>
<path d="M0 0 C39.93 0 79.86 0 121 0 C123.92152099 7.59595457 126.61994829 14.79392294 128.93417358 22.52297974 C130.78734187 28.56852674 132.85709882 34.54103367 134.89818764 40.52520561 C136.25020408 44.49537492 137.58994732 48.46969218 138.93164062 52.44335938 C140.62746565 57.46469984 142.32706014 62.48465442 144.04125977 67.49975586 C145.43869993 71.58920026 146.82288933 75.68291688 148.19826317 79.77983284 C148.72173237 81.33116185 149.25001954 82.88087408 149.78328896 84.42886162 C150.52608965 86.58714169 151.25180533 88.75048351 151.97387695 90.91577148 C152.39039017 92.14230942 152.80690338 93.36884735 153.23603821 94.6325531 C154.28095048 99.23839417 153.78631809 102.42824141 151.6875 106.62353516 C151.130625 107.50315918 150.57375 108.3827832 150 109.2890625 C149.05338501 110.80306641 149.05338501 110.80306641 148.08764648 112.34765625 C147.39872314 113.42917969 146.7097998 114.51070313 146 115.625 C145.27752268 116.77658893 144.55627385 117.9289494 143.83618164 119.08203125 C142.32513781 121.50104681 140.81045309 123.91772108 139.29345703 126.33300781 C135.6224472 132.18993273 132.02541768 138.09192241 128.4375 144 C128.08565643 144.5789502 127.73381287 145.15790039 127.37130737 145.75439453 C119.70483396 158.3825076 112.2935428 171.15271908 105 184 C104.53013672 184.8264502 104.06027344 185.65290039 103.57617188 186.50439453 C97.4277801 197.3511289 91.62809566 208.36880053 85.890625 219.4375 C83.3541895 224.32943636 80.77873647 229.19943294 78.1875 234.0625 C74.32998197 241.31269126 70.63066014 248.63361239 67 256 C65.68 256 64.36 256 63 256 C62.76635796 236.80710012 62.5900381 217.6144889 62.48187828 198.42046165 C62.43032159 189.50817697 62.36004021 180.59677601 62.24560547 171.68505859 C62.14590613 163.9171692 62.08141241 156.14991975 62.05911505 148.38140833 C62.04608077 144.26792528 62.01547666 140.15627284 61.94269943 136.04337692 C61.87472147 132.1702577 61.85389994 128.29971883 61.86892319 124.42605972 C61.86617602 123.00616159 61.84633131 121.58617565 61.80794525 120.16679382 C61.69900924 115.93025892 61.72384703 112.05922507 63 108 C65.41731692 105.701831 67.60602138 104.42023556 70.64489174 103.06727028 C73.24154905 102.10260736 73.24154905 102.10260736 75.125 99.375 C76.62307994 93.59669165 77.63658094 87.25628991 74.86328125 81.73828125 C71.23008142 77.18962949 67.62850139 75.41188394 61.83203125 74.75390625 C56.37689751 74.45236619 53.22066246 75.27011224 49 79 C45.03687498 83.38029608 44.42268923 86.89620084 44.6796875 92.6015625 C45.29795967 97.23106384 46.95804936 100.01437101 50.3125 103.1875 C53.44370526 105.38352661 53.44370526 105.38352661 59 108 C59 156.51 59 205.02 59 255 C57.68 255.33 56.36 255.66 55 256 C49.92366524 246.45217036 44.91255482 236.88380128 40.125 227.1875 C35.21179634 217.27891591 29.96604641 207.57041988 24.60498047 197.89794922 C22.97083266 194.94733552 21.34681869 191.99127583 19.72265625 189.03515625 C11.24981559 173.68747669 2.26385765 158.68767429 -6.91882324 143.75946045 C-8.36498431 141.40604026 -9.80659251 139.04984749 -11.24804688 136.69354248 C-12.30917651 134.95960302 -13.37165732 133.22649906 -14.43457031 131.49365234 C-15.7930672 129.27798567 -17.14925409 127.06090071 -18.50292969 124.84228516 C-21.25947434 120.34561057 -24.02381149 115.88897909 -27.0703125 111.58203125 C-27.51052734 110.94958496 -27.95074219 110.31713867 -28.40429688 109.66552734 C-29.50860368 108.10227064 -30.64695978 106.56320391 -31.7890625 105.02734375 C-34.43459807 98.41350482 -30.11598274 89.92395392 -27.92724609 83.44116211 C-27.46596786 82.05678499 -27.46596786 82.05678499 -26.99537086 80.64444065 C-26.00892356 77.68731978 -25.01633101 74.73230561 -24.0234375 71.77734375 C-23.40950279 69.93995605 -22.79597577 68.10243208 -22.18286133 66.26477051 C-19.91850465 59.4873644 -17.64628444 52.71258758 -15.375 45.9375 C-10.30125 30.778125 -5.2275 15.61875 0 0 Z M5 6 C3.1266278 11.475957 1.2541727 16.95222652 -0.61752319 22.42875671 C-1.25103485 24.28200741 -1.88477402 26.13518035 -2.51876831 27.98826599 C-8.14099947 44.42220113 -13.6788396 60.88357275 -19.13124466 77.37465096 C-20.13471547 80.40798034 -21.14970943 83.43637526 -22.18652344 86.45849609 C-22.54520508 87.50730957 -22.90388672 88.55612305 -23.2734375 89.63671875 C-23.58458496 90.53479248 -23.89573242 91.43286621 -24.21630859 92.3581543 C-25.99680581 97.90498315 -25.99680581 97.90498315 -25.03466797 103.45922852 C-24.27114014 104.65696899 -24.27114014 104.65696899 -23.4921875 105.87890625 C-22.9247583 106.78825928 -22.3573291 107.6976123 -21.77270508 108.63452148 C-20.83334106 110.08387085 -20.83334106 110.08387085 -19.875 111.5625 C-19.23264404 112.58480713 -18.59028809 113.60711426 -17.9284668 114.66040039 C-16.59996159 116.77304849 -15.26454055 118.88136291 -13.92236328 120.98535156 C-11.183327 125.2807059 -8.49455367 129.60641285 -5.8125 133.9375 C-5.29453857 134.77224854 -4.77657715 135.60699707 -4.24291992 136.46704102 C11.38014406 161.72932401 26.42141799 187.37035511 40.03515625 213.77734375 C40.52394005 214.72508415 40.52394005 214.72508415 41.02259827 215.69197083 C42.58054308 218.71841293 44.12727056 221.74967982 45.66137695 224.78833008 C46.20366943 225.8533374 46.74596191 226.91834473 47.3046875 228.015625 C47.77890137 228.95696289 48.25311523 229.89830078 48.74169922 230.86816406 C49.8204096 233.13642995 49.8204096 233.13642995 52 234 C52.18699026 218.19697721 52.328007 202.39425366 52.41449738 186.59039879 C52.45572649 179.25210944 52.51192084 171.91450794 52.60351562 164.57666016 C52.68332446 158.17995257 52.73488186 151.78374313 52.75270796 145.3865515 C52.76312691 141.99983453 52.78755722 138.61454248 52.84584045 135.22828293 C52.9038547 131.44478345 52.91191519 127.6642432 52.90820312 123.88037109 C52.95134644 122.20154343 52.95134644 122.20154343 52.99536133 120.48880005 C53.03446108 114.7929978 53.03446108 114.7929978 50.26341248 110.05830765 C48.18408536 108.45581063 48.18408536 108.45581063 46.01103973 107.23662758 C42.34842135 104.98441206 40.38894459 102.02029376 39 98 C37.89664972 90.33985501 38.12473387 83.43203108 42.43359375 76.83984375 C46.1984464 72.4177849 50.68432696 69.35326806 56.56640625 68.7265625 C64.19244342 68.46805277 69.67664701 69.61676668 76 74 C80.71816217 78.83611622 82.31073669 82.89908774 82.4375 89.625 C82.32051739 96.2379579 81.40196323 101.87354699 77 107 C75.64695482 107.62887041 74.29342822 108.25670548 72.9395752 108.88383484 C70.24291219 110.5561637 69.18618968 111.37571909 68.26939392 114.44967079 C68.0119836 117.67198186 68.01102684 120.81037434 68.09179688 124.04223633 C68.09062866 125.26216278 68.08946045 126.48208923 68.08825684 127.73898315 C68.09287074 131.07691807 68.13292243 134.4108755 68.1888485 137.74810624 C68.23892393 141.2380129 68.24356323 144.72797495 68.25305176 148.21818542 C68.27789859 154.82360639 68.34352034 161.42796574 68.42384768 168.03291959 C68.51332613 175.55390292 68.55726725 183.07493749 68.59741116 190.59632075 C68.68099016 206.06482828 68.82166517 221.53227715 69 237 C71.58008663 233.66029851 73.48013302 230.22510689 75.3125 226.4375 C84.89544049 207.0236656 94.9142639 187.95060298 106.00439453 169.35253906 C107.8333226 166.28001151 109.65198283 163.20174645 111.46664429 160.12078857 C126.21590889 135.0799201 126.21590889 135.0799201 133.6875 123.3125 C134.15647705 122.57112793 134.6254541 121.82975586 135.10864258 121.06591797 C137.20784525 117.76191925 139.33888156 114.48767858 141.5390625 111.25 C142.11974487 110.37154419 142.11974487 110.37154419 142.7121582 109.4753418 C143.71568793 107.95880287 144.74147376 106.45705126 145.76953125 104.95703125 C148.21176938 99.08790661 145.76243194 92.66734426 143.8046875 86.890625 C143.58031006 86.22187851 143.35593262 85.55313202 143.12475586 84.86412048 C142.38207375 82.65689512 141.62860226 80.45351833 140.875 78.25 C140.34718636 76.68812055 139.82002037 75.12602211 139.29345703 73.5637207 C137.54027375 68.37194605 135.77072628 63.18581255 134 58 C133.3319734 56.04152364 132.66400605 54.08302706 131.99609375 52.12451172 C131.30990853 50.1129514 130.62371054 48.10139543 129.9375 46.08984375 C129.59897003 45.09729584 129.26044006 44.10474792 128.91165161 43.0821228 C127.2456493 38.19889919 125.57685838 33.31666761 123.90185547 28.43652344 C123.59022461 27.5265712 123.27859375 26.61661896 122.95751953 25.67909241 C122.3754605 23.97957408 121.79206531 22.2805125 121.20703125 20.58201599 C120.00662702 17.07279582 118.858116 13.57314528 117.87158203 9.99731445 C117.30205502 7.14154071 117.30205502 7.14154071 116 6 C114.55786001 5.90441964 113.11105921 5.87811606 111.66575623 5.87974548 C110.73041046 5.87837082 109.7950647 5.87699615 108.83137512 5.87557983 C107.79703842 5.87917511 106.76270172 5.88277039 105.69702148 5.88647461 C104.61422913 5.88632858 103.53143677 5.88618256 102.41583252 5.8860321 C98.81756626 5.88673177 95.21935103 5.89452667 91.62109375 5.90234375 C89.13387582 5.90420774 86.64665752 5.90563173 84.15943909 5.90663147 C78.26978809 5.9100665 72.3801561 5.91795723 66.49051291 5.92798096 C59.12974626 5.94023754 51.76897736 5.94562209 44.40820312 5.95117188 C31.27212602 5.96191185 18.13606417 5.97879911 5 6 Z " fill="#0D0E0E" transform="translate(455,332)"/>
<path d="M0 0 C1.03374756 -0.01409912 2.06749512 -0.02819824 3.13256836 -0.04272461 C15.27068493 0.03361575 25.59779996 2.49963747 34.8125 10.5625 C37.03194889 14.72396667 36.81214835 18.74710953 36.3125 23.375 C35.9825 24.035 35.6525 24.695 35.3125 25.375 C34.3225 25.375 33.3325 25.375 32.3125 25.375 C31.631875 24.6325 30.95125 23.89 30.25 23.125 C26.03892649 18.59197898 18.06766128 15.6578563 11.96264648 15.19799805 C-2.17187922 14.88632573 -15.096488 15.36099178 -28.6875 19.375 C-29.40824707 19.58350586 -30.12899414 19.79201172 -30.87158203 20.00683594 C-37.51522351 21.94893714 -44.04374441 24.12593776 -50.52264404 26.56532288 C-53.99052594 27.86234434 -57.47364372 29.11643736 -60.95703125 30.37109375 C-61.71868088 30.6459108 -62.48033051 30.92072784 -63.26506042 31.20387268 C-65.6765373 32.07388633 -68.08825623 32.9432265 -70.5 33.8125 C-72.89473202 34.67607468 -75.28941202 35.53979291 -77.68399048 36.40379333 C-79.2314506 36.96187664 -80.77911669 37.5193892 -82.32699585 38.0763092 C-86.51817328 39.58548674 -90.6969858 41.12377965 -94.87109375 42.6796875 C-98.87379018 44.13622319 -102.76187215 45.22251905 -106.9375 46.0625 C-108.61585938 46.40861328 -108.61585938 46.40861328 -110.328125 46.76171875 C-121.67108285 48.83246803 -134.38122339 51.02408985 -144.7578125 44.875 C-147.64884057 42.62772312 -149.1044616 40.68498937 -150.6875 37.375 C-150.6875 36.385 -150.6875 35.395 -150.6875 34.375 C-149.21023438 34.61089844 -149.21023438 34.61089844 -147.703125 34.8515625 C-119.30331546 38.85374228 -92.1457657 25.7058114 -66.18212891 15.74755859 C-53.53195724 10.90447039 -40.77679458 6.86000602 -27.6875 3.375 C-26.64770996 3.08471924 -26.64770996 3.08471924 -25.58691406 2.78857422 C-17.06969415 0.44801536 -8.79026686 0.08700682 0 0 Z " fill="#060708" transform="translate(666.6875,560.625)"/>
<path d="M0 0 C1.05102905 -0.00845947 1.05102905 -0.00845947 2.12329102 -0.01708984 C10.8321694 0.10376722 19.02899757 2.45277179 26.3125 7.3125 C28.69369155 9.77698425 30.57678433 12.36295613 32.3125 15.3125 C32.68375 15.92996094 33.055 16.54742188 33.4375 17.18359375 C35.80219396 22.93697861 35.15127272 29.81110662 33.21484375 35.5859375 C27.97214894 46.68646997 21.67051511 51.96623413 10.3125 56.3125 C9.219375 56.745625 8.12625 57.17875 7 57.625 C0.42240706 58.85133089 -7.2784988 59.44883373 -13.6875 57.3125 C-13.92984375 58.29089844 -14.1721875 59.26929688 -14.421875 60.27734375 C-16.2881516 67.63636903 -18.32427729 74.46593948 -21.6875 81.3125 C-24.02044775 81.35491723 -26.35452567 81.35342937 -28.6875 81.3125 C-29.6875 80.3125 -29.6875 80.3125 -29.91796875 77.3359375 C-29.84469196 72.61498989 -28.43554543 68.3997404 -27 63.9375 C-26.44346008 62.14991083 -25.88747919 60.36214753 -25.33203125 58.57421875 C-25.05311035 57.68653809 -24.77418945 56.79885742 -24.48681641 55.88427734 C-23.33766166 52.1869053 -22.263568 48.46913515 -21.1875 44.75 C-20.36117869 41.9353956 -19.52633525 39.12339873 -18.6875 36.3125 C-18.43967773 35.48169922 -18.19185547 34.65089844 -17.93652344 33.79492188 C-17.15494414 31.19353155 -16.36054845 28.59638034 -15.5625 26 C-15.32080078 25.19296631 -15.07910156 24.38593262 -14.83007812 23.55444336 C-12.5290201 16.1540201 -12.5290201 16.1540201 -9.6875 13.3125 C-7.125 12.9375 -7.125 12.9375 -4.6875 13.3125 C-4.0275 13.9725 -3.3675 14.6325 -2.6875 15.3125 C-3.04724989 21.03128277 -4.3725561 26.2343563 -6.0625 31.6875 C-6.28510498 32.42411865 -6.50770996 33.1607373 -6.73706055 33.91967773 C-7.1789702 35.38036785 -7.62346812 36.84027794 -8.07080078 38.29931641 C-8.89416774 40.98715644 -9.69681697 43.6810703 -10.5 46.375 C-10.89532485 47.68765324 -11.29091614 49.00022658 -11.6875 50.3125 C-10.759375 50.02375 -9.83125 49.735 -8.875 49.4375 C-5.72489104 48.51660121 -2.61916889 47.98386042 0.625 47.5 C7.58564567 46.27277872 13.76446365 43.86053635 18.8125 38.8125 C22.28417296 33.0263784 23.18538978 28.03698427 22.3125 21.3125 C20.11305327 16.83214556 17.81118182 14.44937386 13.3125 12.3125 C3.54179056 9.47430572 -8.37797372 9.71454199 -17.4375 14.4375 C-21.19684218 16.58632073 -24.52976906 18.86075639 -27.75 21.75 C-30.6875 24.3125 -30.6875 24.3125 -33.5 24.875 C-35.6875 24.3125 -35.6875 24.3125 -37.6875 21.3125 C-37.79311317 17.5104258 -36.2409035 15.5362719 -33.75 12.875 C-23.95649294 3.71976631 -13.20822083 0.10048641 0 0 Z " fill="#090A0B" transform="translate(383.6875,647.6875)"/>
<path d="M0 0 C1.6588487 1.6588487 1.04120877 3.84379673 1.0625 6.125 C1.49976003 12.66047588 3.82573979 17.19908819 7.20532227 22.65869141 C9.79485566 26.97126273 10.54143406 29.99474293 10 35 C7.02222371 40.62468854 3.55730902 44.07006945 -2.4375 46.25 C-10.5 47.94736842 -10.5 47.94736842 -14.375 45.5 C-14.91125 45.005 -15.4475 44.51 -16 44 C-15.25 39.25 -15.25 39.25 -13 37 C-10.65234375 36.40234375 -10.65234375 36.40234375 -7.9375 35.9375 C-4.66916048 35.58972434 -4.66916048 35.58972434 -2 34 C-2.31938523 28.57045117 -3.64540527 25.2694842 -7 21 C-7.66 20.67 -8.32 20.34 -9 20 C-9.24878906 20.55300781 -9.49757813 21.10601563 -9.75390625 21.67578125 C-14.82300737 31.13068773 -23.8194874 40.37499928 -33.421875 45.22265625 C-36.52816419 46.15924951 -39.25685078 46.33711274 -42.5 46.375 C-43.6034375 46.40335938 -44.706875 46.43171875 -45.84375 46.4609375 C-49.65644796 45.9041326 -51.26973533 44.66101883 -54 42 C-55.88378044 38.23243912 -55.48385315 33.83864198 -54.43359375 29.84765625 C-53.68185744 27.70264949 -52.86420025 25.60210872 -52 23.5 C-51.57074219 22.40945313 -51.57074219 22.40945313 -51.1328125 21.296875 C-50.43395426 19.52643412 -49.71868368 17.76248618 -49 16 C-59.48811005 20.41604634 -64.60455214 27.69816908 -69 38 C-69.71771282 39.98225446 -70.4138021 41.97495272 -71 44 C-74.375 44.625 -74.375 44.625 -78 45 C-80 43 -80 43 -80.36328125 40.0859375 C-80.20147328 34.6463755 -78.04998023 29.67424588 -76.1875 24.625 C-75.47219546 22.63818667 -74.75734551 20.65120961 -74.04296875 18.6640625 C-73.69540527 17.71176758 -73.3478418 16.75947266 -72.98974609 15.77832031 C-71.80873932 12.46311137 -70.7385708 9.11899759 -69.7043457 5.75537109 C-69 4 -69 4 -67 2 C-64 1.75 -64 1.75 -61 2 C-59 4 -59 4 -58.875 7.125 C-58.91625 8.07375 -58.9575 9.0225 -59 10 C-58.030625 9.34 -57.06125 8.68 -56.0625 8 C-51.75584917 5.5490605 -47.86019374 5.11803434 -43 6 C-40.4375 7.375 -40.4375 7.375 -39 10 C-37.8619534 16.56473199 -39.37591161 21.69461855 -42.04296875 27.66015625 C-43.32670273 30.79875484 -43.70748738 33.63610487 -44 37 C-36.3961961 36.1375315 -32.25214551 33.44009505 -27 28 C-26.34128906 27.33871094 -25.68257813 26.67742188 -25.00390625 25.99609375 C-20.13493343 20.84238568 -16.45019239 15.18947844 -12.859375 9.11328125 C-6.4316324 -1.64913651 -6.4316324 -1.64913651 0 0 Z " fill="#08090A" transform="translate(537,684)"/>
<path d="M0 0 C0.94230469 -0.020625 1.88460937 -0.04125 2.85546875 -0.0625 C8.19909571 -0.09247827 12.26459949 0.01507478 16.75 3.25 C21.48919949 8.78829656 21.39342912 13.44867249 21.20703125 20.4765625 C20.32793884 27.73471007 16.83164856 34.01436209 11.75 39.25 C8.75 41.4375 8.75 41.4375 5.75 43.25 C5.110625 43.6625 4.47125 44.075 3.8125 44.5 C0.72299439 45.62345658 -2.00035993 45.49071408 -5.25 45.25 C-7.25 43.25 -7.25 43.25 -7.375 40.125 C-7.33375 39.17625 -7.2925 38.2275 -7.25 37.25 C-6.43015625 36.87488281 -5.6103125 36.49976563 -4.765625 36.11328125 C-3.68796875 35.60152344 -2.6103125 35.08976563 -1.5 34.5625 C-0.43265625 34.06363281 0.6346875 33.56476562 1.734375 33.05078125 C5.94912736 30.53394078 8.19935405 27.90193786 9.75 23.25 C9.84398043 21.21007192 9.87992069 19.16708586 9.875 17.125 C9.87757813 16.04992187 9.88015625 14.97484375 9.8828125 13.8671875 C10.04688975 11.32343604 10.04688975 11.32343604 8.75 10.25 C6.82530912 9.85631483 6.82530912 9.85631483 4.5625 9.75 C3.80582031 9.6778125 3.04914062 9.605625 2.26953125 9.53125 C-1.8828116 10.71579432 -3.93331813 13.72705013 -6.25 17.25 C-7.58063941 20.03264007 -8.50193732 22.85805845 -9.375 25.8125 C-9.62451416 26.60769043 -9.87402832 27.40288086 -10.13110352 28.22216797 C-10.85776093 30.55921092 -11.55898339 32.90220238 -12.25 35.25 C-12.75466797 36.95349609 -12.75466797 36.95349609 -13.26953125 38.69140625 C-14.07148797 41.4726604 -14.85445178 44.25854371 -15.63134766 47.046875 C-17.02127943 51.99665571 -18.44804475 56.93579316 -19.875 61.875 C-20.17656006 62.93154785 -20.47812012 63.9880957 -20.78881836 65.07666016 C-21.22206421 66.57398682 -21.22206421 66.57398682 -21.6640625 68.1015625 C-21.9213916 68.99697754 -22.1787207 69.89239258 -22.44384766 70.81494141 C-23.20002935 73.09905896 -24.11375248 75.13331559 -25.25 77.25 C-28.125 77.375 -28.125 77.375 -31.25 77.25 C-31.91 76.59 -32.57 75.93 -33.25 75.25 C-32.95414034 67.77006091 -30.88650716 60.99223902 -28.6875 53.875 C-27.96189021 51.48187674 -27.2366406 49.08864424 -26.51171875 46.6953125 C-25.95170166 44.85888184 -25.95170166 44.85888184 -25.38037109 42.98535156 C-24.26058531 39.28497952 -23.16646709 35.57806079 -22.08203125 31.8671875 C-21.73277588 30.67399902 -21.38352051 29.48081055 -21.02368164 28.25146484 C-20.36080438 25.98411792 -19.69971774 23.7162464 -19.04077148 21.44775391 C-14.65768263 6.5464007 -14.65768263 6.5464007 -12.25 1.25 C-8.53184865 -0.60907568 -4.09206454 0.02202996 0 0 Z " fill="#090A0B" transform="translate(689.25,684.75)"/>
<path d="M0 0 C3.46573107 1.80646214 3.46573107 1.80646214 4.625 4.125 C5.13775619 10.17552302 4.48366202 14.23813163 0.625 19.125 C-4.7284979 25.22798761 -12.04032249 28.01465555 -19.375 31.125 C-19.375 31.785 -19.375 32.445 -19.375 33.125 C-13.07904511 35.22365163 -8.31454996 34.09355413 -2.5078125 31.34765625 C-0.4759429 30.18286653 1.09390082 28.95413171 2.8125 27.375 C5.625 25.125 5.625 25.125 8.875 24.6875 C11.625 25.125 11.625 25.125 13.625 27.125 C13.37887254 31.39355344 11.92482629 33.36677905 8.8125 36.1875 C1.34567955 42.44732253 -7.29115303 44.87244864 -16.96875 44.44140625 C-21.9069621 43.79206343 -24.91727585 41.84949722 -28.125 38.1875 C-32.19218174 32.65161374 -33.05288626 28.91479623 -32.375 22.125 C-30.87511619 14.2028864 -26.64511429 7.41573028 -20.24609375 2.484375 C-13.57564043 -1.79061166 -7.50480537 -3.62440331 0 0 Z " fill="#090A0C" transform="translate(444.375,685.875)"/>
<path d="M0 0 C3 -0.3125 3 -0.3125 6 0 C8 2 8 2 8 5 C9.0725 4.896875 10.145 4.79375 11.25 4.6875 C15 5 15 5 17.3125 7.4375 C17.869375 8.283125 18.42625 9.12875 19 10 C22.05269846 11.52634923 24.75845689 10.83794444 28.125 10.5625 C29.40632812 10.46066406 30.68765625 10.35882812 32.0078125 10.25390625 C33.48894531 10.12822266 33.48894531 10.12822266 35 10 C35.27714844 9.36191406 35.55429687 8.72382812 35.83984375 8.06640625 C36.20207031 7.24011719 36.56429687 6.41382813 36.9375 5.5625 C37.29714844 4.73878906 37.65679688 3.91507813 38.02734375 3.06640625 C39 1 39 1 40 0 C42.4375 -0.1875 42.4375 -0.1875 45 0 C47 2 47 2 47.3125 4.5625 C47.04696964 7.483334 46.60770239 9.35148153 45.6328125 12.046875 C43.56777875 18.0633126 42.28933528 24.22952607 40.98242188 30.44726562 C39.78664968 35.77599804 38.54084804 39.78273264 35 44 C32.375 44.5 32.375 44.5 30 44 C29.34 43.34 28.68 42.68 28 42 C28.26637697 34.00869084 30.67686347 26.5961162 33 19 C32.0925 19.32355469 31.185 19.64710938 30.25 19.98046875 C24.9182909 21.65303615 20.82401188 21.74311595 15.625 19.625 C13 18 13 18 11 16 C8.39719432 16.32041397 8.39719432 16.32041397 6 17 C5.76812988 17.74685059 5.53625977 18.49370117 5.29736328 19.26318359 C4.24633286 22.63583043 3.18579602 26.00541265 2.125 29.375 C1.76019531 30.550625 1.39539063 31.72625 1.01953125 32.9375 C0.66503906 34.05898438 0.31054688 35.18046875 -0.0546875 36.3359375 C-0.37937012 37.37282715 -0.70405273 38.4097168 -1.03857422 39.47802734 C-2 42 -2 42 -4 44 C-7.0625 44.1875 -7.0625 44.1875 -10 44 C-11 43 -11 43 -11.3125 39.625 C-11.24959766 35.13534564 -9.85778665 31.68444898 -8.21484375 27.55078125 C-6.27234456 21.87318716 -5.04319832 16.02820678 -3.7512207 10.1730957 C-3.55230225 9.29097412 -3.35338379 8.40885254 -3.1484375 7.5 C-2.97489746 6.7059375 -2.80135742 5.911875 -2.62255859 5.09375 C-2 3 -2 3 0 0 Z " fill="#090B0C" transform="translate(614,685)"/>
<path d="M0 0 C2.9375 0.1875 2.9375 0.1875 3.9375 1.1875 C4.07865161 3.85808851 3.97997107 6.51182238 3.9375 9.1875 C4.906875 9.496875 5.87625 9.80625 6.875 10.125 C9.9375 11.1875 9.9375 11.1875 10.9375 12.1875 C11.125 14.625 11.125 14.625 10.9375 17.1875 C8.9375 19.1875 8.9375 19.1875 5.5 19.625 C1.75285508 20.21665446 1.12077812 20.31874272 -1.0625 23.1875 C-2.04925948 25.80985998 -2.04925948 25.80985998 -2.74609375 28.81640625 C-3.03419922 29.93466797 -3.32230469 31.05292969 -3.61914062 32.20507812 C-3.90982422 33.37490234 -4.20050781 34.54472656 -4.5 35.75 C-9.81955949 56.94455949 -9.81955949 56.94455949 -13.0625 60.1875 C-16 60.375 -16 60.375 -19.0625 60.1875 C-19.7225 59.5275 -20.3825 58.8675 -21.0625 58.1875 C-20.70540559 52.49861667 -19.38507696 47.35507199 -17.6875 41.9375 C-15.5967511 35.06746408 -13.7190041 28.17713925 -12.0625 21.1875 C-13.196875 20.878125 -14.33125 20.56875 -15.5 20.25 C-19.0625 19.1875 -19.0625 19.1875 -20.0625 18.1875 C-19.77519945 15.84805264 -19.44313221 13.5135857 -19.0625 11.1875 C-17.43854003 10.68413233 -15.81329459 10.18491024 -14.1875 9.6875 C-13.28257812 9.4090625 -12.37765625 9.130625 -11.4453125 8.84375 C-9.0625 8.1875 -9.0625 8.1875 -7.0625 8.1875 C-6.77375 7.23875 -6.485 6.29 -6.1875 5.3125 C-4.75753538 1.34037604 -4.29474651 0.26294366 0 0 Z " fill="#08090A" transform="translate(737.0625,668.8125)"/>
<path d="M0 0 C2.5625 2.0625 2.5625 2.0625 3.5625 3.0625 C3.3125 6.5 3.3125 6.5 2.5625 10.0625 C-0.4375 12.0625 -0.4375 12.0625 -3 11.9375 C-5.4375 11.0625 -5.4375 11.0625 -6.75 9 C-6.976875 8.360625 -7.20375 7.72125 -7.4375 7.0625 C-13.58564015 9.14661531 -17.88403277 11.15683039 -22.25 16.125 C-24.06344402 20.61088784 -24.19082582 25.29143644 -23.4375 30.0625 C-22.36231586 31.97104083 -22.36231586 31.97104083 -20.4375 33.0625 C-17.76990674 33.56661234 -17.76990674 33.56661234 -14.875 33.625 C-9.64583333 33.85416667 -9.64583333 33.85416667 -7.4375 36.0625 C-7.625 39.0625 -7.625 39.0625 -8.4375 42.0625 C-12.50736321 44.77574214 -15.66231817 44.57895061 -20.4375 44.0625 C-26.29046852 42.49942653 -29.77507452 39.43739354 -33.1875 34.5625 C-35.68507855 27.56928006 -35.5056625 20.53934608 -32.4375 13.75 C-28.09874948 6.17845497 -22.06686814 1.61945405 -13.890625 -1.27734375 C-8.5983912 -2.70152769 -4.93854294 -2.78354238 0 0 Z " fill="#0C0D0F" transform="translate(592.4375,685.9375)"/>
<path d="M0 0 C2 2 2 2 2.3125 4.875 C1.96213296 8.37867037 1.70029608 9.73523555 -1 12 C-4.5625 12.375 -4.5625 12.375 -8 12 C-10 10 -10 10 -10.375 7.125 C-10 4 -10 4 -8.375 1.625 C-5.35164037 -0.44361448 -3.59411792 -0.46879799 0 0 Z " fill="#0B0C0B" transform="translate(664,666)"/>
<path d="M0 0 C0 3.30226386 -0.47719616 5.386111 -2.63671875 7.921875 C-6.53360696 11.5144348 -9.48696391 13.8621741 -15 14 C-14.93032569 10.51628457 -14.81133452 7.92141508 -12.4453125 5.234375 C-8.20591699 1.61065934 -5.68056054 -0.14948844 0 0 Z " fill="#F3F2F3" transform="translate(439,693)"/>
<path d="M0 0 C0 1.32 0 2.64 0 4 C-2.31 4 -4.62 4 -7 4 C-7.33 3.01 -7.66 2.02 -8 1 C-5.29120665 -0.35439668 -2.99066732 -0.06501451 0 0 Z " fill="#E1E0E0" transform="translate(380,658)"/>
</svg>
